<svg xmlns="http://www.w3.org/2000/svg" width="24" height="24" viewBox="0 0 24 24">
  <g id="icon-notification_Icons" transform="translate(4 2)">
    <g id="icon-notification_Rounded" transform="translate(-444 -4100)">
      <g id="icon-notification_Social" transform="translate(100 4044)">
        <g id="icon-notification_-Round-_-Social-_-notifications" data-name="icon-notification_-Round-/-Social-/-notifications" transform="translate(340 54)">
          <g id="Group_302" data-name="Group 302">
            <path id="icon-notification_Path" d="M0,0H24V24H0Z" fill="none" fill-rule="evenodd"/>
            <path id="icon-notification__-Icon-Color" data-name="icon-notification_🔹-Icon-Color" d="M12,22a2.006,2.006,0,0,0,2-2H10A2,2,0,0,0,12,22Zm6-6V11c0-3.07-1.64-5.64-4.5-6.32V4a1.5,1.5,0,0,0-3,0v.68C7.63,5.36,6,7.92,6,11v5L4.71,17.29A1,1,0,0,0,5.41,19H18.58a1,1,0,0,0,.71-1.71Z" fill="#fff" fill-rule="evenodd"/>
          </g>
        </g>
      </g>
    </g>
  </g>
</svg>
